# xmcd
# 
# Track frame offsets:
#     150
#     35876
#     56889
#     77083
#     114763
# 
# Disc length: 1835
# 
# Revision: 0
# Processed by: cddbd v1.5.2PL0 Copyright (c) Steve Scherf et al.
# Submitted via: fre:ac v1.0.17
# 
DISCID=3c072905
DTITLE=Pink Noise - The Lost Beauties
DYEAR=2014
DGENRE=Progressive Rock
TTITLE0=涅槃
TTITLE1=夢失落
TTITLE2=七零世代
TTITLE3=Beauty in Your Eyes
TTITLE4=Ann
EXTD=
EXTT0=
EXTT1=
EXTT2=
EXTT3=
EXTT4=
PLAYORDER=
